<?xml version="1.0" encoding="UTF-8"?>
<svg id="_1_作図" data-name=" 1 作図" xmlns="http://www.w3.org/2000/svg" viewBox="0 0 371.85 374.08">
  <defs>
    <style>
      .cls-1, .cls-2, .cls-3 {
        stroke: #5c5857;
        stroke-miterlimit: 10;
      }

      .cls-1, .cls-4 {
        fill: #5c5857;
      }

      .cls-2 {
        stroke-width: 17.01px;
      }

      .cls-2, .cls-3 {
        fill: none;
        stroke-linecap: round;
      }

      .cls-3 {
        stroke-width: 31.18px;
      }
    </style>
  </defs>
  <path class="cls-3" d="M246.19,348.2c-18.34,6.66-38.13,10.29-58.77,10.29-94.9,0-171.83-76.75-171.83-171.43,0-24.17,5.01-47.17,14.06-68.02"/>
  <rect class="cls-1" x="170.8" y="121.08" width="30" height="144.25" rx="14.75" ry="14.75"/>
  <circle class="cls-1" cx="184.89" cy="88.43" r="19"/>
  <path class="cls-4" d="M70.8,77.06h58.44c7.06,0,12.78,5.72,12.78,12.78h0c0,7.06-5.72,12.78-12.78,12.78h-58.44c-7.06,0-12.78-5.72-12.78-12.78h0c0-7.06,5.72-12.78,12.78-12.78Z"/>
  <path class="cls-4" d="M97.72,221.06h0c-8.28,0-15-6.59-15-14.73V46.77c.73-8.48,6.72-20.71,15-20.71h-2.07c8.28,0,17.07,6.59,17.07,14.73v165.54c0,8.13-6.72,14.73-15,14.73Z"/>
  <path class="cls-3" d="M105.91,37.14c24.98-14.57,47.21-21.55,78.52-21.55,94.9,0,171.83,76.75,171.83,171.43,0,46-18.16,87.77-47.72,118.56"/>
  <path class="cls-2" d="M103.39,57.93c.84-7.69,6.34-14.74,13.24-19.02"/>
  <path class="cls-1" d="M276.23,319.74l2.99,7.98h0c-5.63,0-24.06-9.16-25.99-21.5v-149c0-8.01,6.72-14.5,15-14.5h0c8.28,0,15,6.49,15,14.5v148h0c4.09,10.9,2.95,14.5-6.99,14.5h0v.02Z"/>
  <path class="cls-3" d="M316.65,296.4c-18.95,26.83-38.69,20.96-47.21,3.38"/>
  <path class="cls-1" d="M244.86,188.4h58.44c7.06,0,12.78,5.72,12.78,12.78h0c0,7.06-5.72,12.78-12.78,12.78h-58.44c-7.06,0-12.78-5.72-12.78-12.78h0c0-7.06,5.72-12.78,12.78-12.78Z"/>
</svg>